<svg xmlns="http://www.w3.org/2000/svg" version="1.1" xmlns:xlink="http://www.w3.org/1999/xlink" xmlns:svgjs="http://svgjs.dev/svgjs" width="1000" height="1000"><style>
    #light-icon {
      display: inline;
    }
    #dark-icon {
      display: none;
    }

    @media (prefers-color-scheme: dark) {
      #light-icon {
        display: none;
      }
      #dark-icon {
        display: inline;
      }
    }
  </style><g id="light-icon"><svg xmlns="http://www.w3.org/2000/svg" version="1.1" xmlns:xlink="http://www.w3.org/1999/xlink" xmlns:svgjs="http://svgjs.dev/svgjs" width="1000" height="1000"><g clip-path="url(#SvgjsClipPath1012)"><rect width="1000" height="1000" fill="#ffffff"></rect><g transform="matrix(2.3333333333333335,0,0,2.3333333333333335,150,150)"><svg xmlns="http://www.w3.org/2000/svg" version="1.1" xmlns:xlink="http://www.w3.org/1999/xlink" xmlns:svgjs="http://svgjs.dev/svgjs" width="300" height="300"><svg data-v-fde0c5aa="" xmlns="http://www.w3.org/2000/svg" viewBox="0 0 300 300" class="font"><!----><defs data-v-fde0c5aa=""><!----><clipPath id="SvgjsClipPath1012"><rect width="1000" height="1000" x="0" y="0" rx="350" ry="350"></rect></clipPath></defs><rect data-v-fde0c5aa="" fill="#EAF2EF" x="0" y="0" width="300px" height="300px" class="logo-background-square"></rect><defs data-v-fde0c5aa=""><linearGradient data-v-fde0c5aa="" gradientTransform="rotate(25)" id="6b28490e-f05d-4aad-a810-246e860e6c87" x1="0%" y1="0%" x2="100%" y2="0%"><stop data-v-fde0c5aa="" offset="0%" stop-color="#0A3732" stop-opacity="1"></stop><stop data-v-fde0c5aa="" offset="100%" stop-color="#55C388" stop-opacity="1"></stop></linearGradient></defs><g data-v-fde0c5aa="" id="11d25cc1-8b28-43e0-9aac-5fe608ae9f46" fill="url(#6b28490e-f05d-4aad-a810-246e860e6c87)" transform="matrix(7.308970470186175,0,0,7.308970470186175,34.8837207579994,83.30564097436245)"><path d="M1.19 14L2.74 14C3.19 14 3.42 14 3.42 13.82C3.42 13.44 2.88 13.58 2.88 12.78L2.91 8.55C2.91 8.43 2.98 8.30 3.14 8.47L5.99 11.63C6.12 11.80 6.26 11.83 6.43 11.62L9.07 8.47C9.18 8.34 9.34 8.30 9.34 8.47L9.35 12.70C9.35 13.58 8.83 13.38 8.83 13.76C8.83 13.94 8.96 14 9.44 14L10.92 14C11.33 14 11.47 14 11.47 13.80C11.47 13.43 10.92 13.58 10.92 12.59L10.93 5.33C10.95 4.63 11.51 4.77 11.51 4.44C11.51 4.24 11.28 4.20 11.07 4.20L9.52 4.20C9.04 4.20 8.88 4.24 8.88 4.42C8.88 4.77 9.32 4.62 9.32 5.14L9.32 5.42C9.32 5.57 9.30 5.71 9.20 5.84L6.38 9.31C6.27 9.45 6.16 9.48 6.02 9.31L3.08 5.75C2.97 5.57 2.94 5.49 2.94 5.32L2.94 5.18C2.94 4.62 3.49 4.79 3.49 4.44C3.49 4.20 3.19 4.20 3.04 4.20L1.09 4.20C0.97 4.20 0.70 4.20 0.70 4.41C0.70 4.82 1.27 4.52 1.27 5.28L1.27 12.73C1.27 13.62 0.74 13.40 0.74 13.79C0.74 13.97 0.97 14 1.19 14ZM16.32 14.18C17.47 14.18 18.10 13.64 18.58 13.16C18.76 12.98 18.91 13.03 19.05 13.20L19.31 13.48C19.47 13.66 19.66 13.68 19.84 13.51L20.34 13.06C20.52 12.89 20.48 12.71 20.34 12.57L19.07 11.20C18.66 10.75 18.61 10.11 18.90 9.79C19.04 9.63 19.05 9.46 18.93 9.34L18.23 8.64C18.05 8.46 17.96 8.50 17.82 8.62C17.54 8.88 17.70 9.41 17.61 9.48C17.50 9.56 17.44 9.44 17.32 9.28C17.15 9.09 16.98 9.06 16.83 9.21L16.35 9.69C16.21 9.83 16.24 9.98 16.35 10.12L17.57 11.54C17.71 11.69 17.86 11.94 17.61 12.22C17.44 12.42 17.04 12.78 16.21 12.78C15.13 12.78 14.34 11.80 14.34 10.96C14.34 9.88 15.11 9.13 15.97 9.13C16.32 9.13 16.46 9.03 16.46 8.79L16.46 8.04C16.46 7.70 16.32 7.70 16.00 7.70C15.40 7.70 14.87 7.13 14.87 6.65C14.87 5.94 15.36 5.33 16.20 5.33C16.84 5.33 17.09 5.49 17.42 5.81C17.72 6.12 17.36 6.24 17.56 6.44C17.72 6.61 17.89 6.54 17.99 6.41L18.86 5.18C18.94 5.05 19.03 4.93 18.84 4.80C18.66 4.68 18.47 4.98 18.23 4.75C18.05 4.56 17.53 4.07 16.20 4.07C14.41 4.07 13.30 5.39 13.30 6.58C13.30 7.55 13.68 8.01 14.03 8.25C14.15 8.33 14.18 8.47 14.03 8.55C13.90 8.62 12.77 9.23 12.77 10.96C12.77 12.40 14.03 14.18 16.32 14.18ZM21.55 14L23.18 14C23.55 14 23.70 14.03 23.70 13.80C23.70 13.41 23.11 13.68 23.11 12.80L23.11 8.40C23.11 8.08 23.28 8.01 23.53 8.22L28.43 12.38C28.62 12.56 28.73 12.77 28.73 12.92L28.73 13.66C28.73 13.85 28.80 14 28.99 14L30.31 14C30.49 14 30.74 14 30.74 13.76C30.74 13.40 30.30 13.48 30.30 12.94L30.30 5.54C30.30 4.56 30.80 4.82 30.80 4.47C30.80 4.23 30.52 4.20 30.00 4.20L29.05 4.20C28.45 4.20 28.22 4.20 28.22 4.44C28.22 4.80 28.73 4.52 28.73 5.63L28.73 10.15C28.73 10.47 28.56 10.51 28.38 10.35L23.38 6.05C23.20 5.87 23.10 5.80 23.10 5.54L23.10 4.56C23.10 4.31 22.96 4.20 22.69 4.20L21.70 4.20C21.25 4.20 21.07 4.21 21.07 4.41C21.07 4.72 21.55 4.55 21.56 5.40L21.56 12.77C21.59 13.62 21.03 13.43 21.03 13.80C21.03 14 21.27 14 21.55 14Z"></path></g><!----><!----></svg></svg></g></g></svg></g><g id="dark-icon"><svg xmlns="http://www.w3.org/2000/svg" version="1.1" xmlns:xlink="http://www.w3.org/1999/xlink" xmlns:svgjs="http://svgjs.dev/svgjs" width="1000" height="1000"><g><g transform="matrix(3.3333333333333335,0,0,3.3333333333333335,0,0)" style="filter: invert(100%)"><svg xmlns="http://www.w3.org/2000/svg" version="1.1" xmlns:xlink="http://www.w3.org/1999/xlink" xmlns:svgjs="http://svgjs.dev/svgjs" width="300" height="300"><svg data-v-fde0c5aa="" xmlns="http://www.w3.org/2000/svg" viewBox="0 0 300 300" class="font"><!----><defs data-v-fde0c5aa=""><!----></defs><rect data-v-fde0c5aa="" fill="#EAF2EF" x="0" y="0" width="300px" height="300px" class="logo-background-square"></rect><defs data-v-fde0c5aa=""><linearGradient data-v-fde0c5aa="" gradientTransform="rotate(25)" id="6b28490e-f05d-4aad-a810-246e860e6c87" x1="0%" y1="0%" x2="100%" y2="0%"><stop data-v-fde0c5aa="" offset="0%" stop-color="#0A3732" stop-opacity="1"></stop><stop data-v-fde0c5aa="" offset="100%" stop-color="#55C388" stop-opacity="1"></stop></linearGradient></defs><g data-v-fde0c5aa="" id="11d25cc1-8b28-43e0-9aac-5fe608ae9f46" fill="url(#6b28490e-f05d-4aad-a810-246e860e6c87)" transform="matrix(7.308970470186175,0,0,7.308970470186175,34.8837207579994,83.30564097436245)"><path d="M1.19 14L2.74 14C3.19 14 3.42 14 3.42 13.82C3.42 13.44 2.88 13.58 2.88 12.78L2.91 8.55C2.91 8.43 2.98 8.30 3.14 8.47L5.99 11.63C6.12 11.80 6.26 11.83 6.43 11.62L9.07 8.47C9.18 8.34 9.34 8.30 9.34 8.47L9.35 12.70C9.35 13.58 8.83 13.38 8.83 13.76C8.83 13.94 8.96 14 9.44 14L10.92 14C11.33 14 11.47 14 11.47 13.80C11.47 13.43 10.92 13.58 10.92 12.59L10.93 5.33C10.95 4.63 11.51 4.77 11.51 4.44C11.51 4.24 11.28 4.20 11.07 4.20L9.52 4.20C9.04 4.20 8.88 4.24 8.88 4.42C8.88 4.77 9.32 4.62 9.32 5.14L9.32 5.42C9.32 5.57 9.30 5.71 9.20 5.84L6.38 9.31C6.27 9.45 6.16 9.48 6.02 9.31L3.08 5.75C2.97 5.57 2.94 5.49 2.94 5.32L2.94 5.18C2.94 4.62 3.49 4.79 3.49 4.44C3.49 4.20 3.19 4.20 3.04 4.20L1.09 4.20C0.97 4.20 0.70 4.20 0.70 4.41C0.70 4.82 1.27 4.52 1.27 5.28L1.27 12.73C1.27 13.62 0.74 13.40 0.74 13.79C0.74 13.97 0.97 14 1.19 14ZM16.32 14.18C17.47 14.18 18.10 13.64 18.58 13.16C18.76 12.98 18.91 13.03 19.05 13.20L19.31 13.48C19.47 13.66 19.66 13.68 19.84 13.51L20.34 13.06C20.52 12.89 20.48 12.71 20.34 12.57L19.07 11.20C18.66 10.75 18.61 10.11 18.90 9.79C19.04 9.63 19.05 9.46 18.93 9.34L18.23 8.64C18.05 8.46 17.96 8.50 17.82 8.62C17.54 8.88 17.70 9.41 17.61 9.48C17.50 9.56 17.44 9.44 17.32 9.28C17.15 9.09 16.98 9.06 16.83 9.21L16.35 9.69C16.21 9.83 16.24 9.98 16.35 10.12L17.57 11.54C17.71 11.69 17.86 11.94 17.61 12.22C17.44 12.42 17.04 12.78 16.21 12.78C15.13 12.78 14.34 11.80 14.34 10.96C14.34 9.88 15.11 9.13 15.97 9.13C16.32 9.13 16.46 9.03 16.46 8.79L16.46 8.04C16.46 7.70 16.32 7.70 16.00 7.70C15.40 7.70 14.87 7.13 14.87 6.65C14.87 5.94 15.36 5.33 16.20 5.33C16.84 5.33 17.09 5.49 17.42 5.81C17.72 6.12 17.36 6.24 17.56 6.44C17.72 6.61 17.89 6.54 17.99 6.41L18.86 5.18C18.94 5.05 19.03 4.93 18.84 4.80C18.66 4.68 18.47 4.98 18.23 4.75C18.05 4.56 17.53 4.07 16.20 4.07C14.41 4.07 13.30 5.39 13.30 6.58C13.30 7.55 13.68 8.01 14.03 8.25C14.15 8.33 14.18 8.47 14.03 8.55C13.90 8.62 12.77 9.23 12.77 10.96C12.77 12.40 14.03 14.18 16.32 14.18ZM21.55 14L23.18 14C23.55 14 23.70 14.03 23.70 13.80C23.70 13.41 23.11 13.68 23.11 12.80L23.11 8.40C23.11 8.08 23.28 8.01 23.53 8.22L28.43 12.38C28.62 12.56 28.73 12.77 28.73 12.92L28.73 13.66C28.73 13.85 28.80 14 28.99 14L30.31 14C30.49 14 30.74 14 30.74 13.76C30.74 13.40 30.30 13.48 30.30 12.94L30.30 5.54C30.30 4.56 30.80 4.82 30.80 4.47C30.80 4.23 30.52 4.20 30.00 4.20L29.05 4.20C28.45 4.20 28.22 4.20 28.22 4.44C28.22 4.80 28.73 4.52 28.73 5.63L28.73 10.15C28.73 10.47 28.56 10.51 28.38 10.35L23.38 6.05C23.20 5.87 23.10 5.80 23.10 5.54L23.10 4.56C23.10 4.31 22.96 4.20 22.69 4.20L21.70 4.20C21.25 4.20 21.07 4.21 21.07 4.41C21.07 4.72 21.55 4.55 21.56 5.40L21.56 12.77C21.59 13.62 21.03 13.43 21.03 13.80C21.03 14 21.27 14 21.55 14Z"></path></g><!----><!----></svg></svg></g></g></svg></g></svg>